<?xml version="1.0" encoding="UTF-8"?>
<svg xmlns="http://www.w3.org/2000/svg" viewBox="0 0 64 64" role="img" aria-label="Street View pegman">
  <defs>
    <radialGradient id="bodyGrad" cx="50%" cy="35%" r="70%">
      <stop offset="0%" stop-color="#ffdf5f"/>
      <stop offset="100%" stop-color="#f4b400"/>
    </radialGradient>
    <radialGradient id="headGrad" cx="50%" cy="35%" r="70%">
      <stop offset="0%" stop-color="#ffe680"/>
      <stop offset="100%" stop-color="#f4b400"/>
    </radialGradient>
  </defs>
  <ellipse cx="32" cy="60" rx="14" ry="2.5" fill="rgba(0,0,0,0.22)"/>
  <path d="M18,33 Q18,26 25,25 L39,25 Q46,26 46,33 L44,52 Q41,57 32,57 Q23,57 20,52 Z"
        fill="url(#bodyGrad)" stroke="#7a5400" stroke-width="1.6" stroke-linejoin="round"/>
  <line x1="32" y1="31" x2="32" y2="55" stroke="#7a5400" stroke-width="1.4" stroke-linecap="round"/>
  <circle cx="32" cy="18" r="11.5" fill="url(#headGrad)" stroke="#7a5400" stroke-width="1.6"/>
  <path d="M22,17 Q23.5,12.5 27.5,11 L36.5,11 Q40.5,12.5 42,17 Q42,20.5 36.5,21.5 L27.5,21.5 Q22,20.5 22,17 Z"
        fill="#2b2b2b"/>
  <path d="M24,17.5 Q25,14 28.5,12.8 L35.5,12.8 Q39,14 40,17.5 Q40,19.6 35.5,20.4 L28.5,20.4 Q24,19.6 24,17.5 Z"
        fill="none" stroke="rgba(255,255,255,0.35)" stroke-width="0.8"/>
</svg>
